<svg width="75" height="76" viewBox="0 0 75 76" fill="none" xmlns="http://www.w3.org/2000/svg">
<path d="M74.1569 8.42725C74.9987 13.6122 72.4299 18.7375 68.4486 19.8168C67.7971 19.9934 67.1665 20.0659 66.5491 19.9872L56.3806 40.2134C56.684 40.9186 56.8942 41.7474 57.0319 42.5958C57.8737 47.7808 55.3049 52.9061 51.3236 53.9854C47.3423 55.0646 43.3961 51.7054 42.5544 46.5204C42.4166 45.6719 42.3513 44.8039 42.4098 44.0006L31.2291 34.4828C30.6882 34.8754 30.052 35.1463 29.4006 35.3229C28.7491 35.4995 28.0823 35.5819 27.4649 35.5032L14.4861 61.4615C14.7895 62.1666 14.992 62.9483 15.1297 63.7967C15.9715 68.9817 13.4027 74.107 9.42138 75.1863C5.44006 76.2655 1.49392 72.9063 0.652177 67.7213C-0.189563 62.5363 2.37919 57.411 6.36051 56.3318C7.012 56.1552 7.6426 56.0826 8.25997 56.1613L21.2826 30.2403C20.9792 29.5352 20.7691 28.7064 20.6314 27.8579C19.7896 22.6729 22.3584 17.5477 26.3397 16.4684C30.321 15.3892 34.2672 18.7484 35.1089 23.9334C35.2466 24.7818 35.312 25.6499 35.2535 26.4532L46.4342 35.971C46.975 35.5783 47.6112 35.3075 48.2627 35.1309C48.9142 34.9543 49.581 34.8719 50.1984 34.9506L60.323 14.6871C60.0196 13.9819 59.8171 13.2003 59.6794 12.3518C58.8376 7.16681 61.4064 2.04152 65.3877 0.962271C69.369 -0.116981 73.3152 3.24226 74.1569 8.42725Z" fill="#336CFB"/>
</svg>
