<?xml version="1.0" encoding="UTF-8" standalone="no"?>
<svg
   width="192"
   height="82"
   viewBox="0 0 192 82"
   fill="none"
   version="1.1"
   id="svg8"
   xmlns="http://www.w3.org/2000/svg"
   xmlns:svg="http://www.w3.org/2000/svg">
  <defs
     id="defs12" />
  <path
     d="M153.157 12.4273C153.999 17.6122 151.43 22.7375 147.449 23.8168C146.797 23.9934 146.166 24.0659 145.549 23.9872L135.381 44.2134C135.684 44.9186 135.894 45.7474 136.032 46.5958C136.874 51.7808 134.305 56.9061 130.324 57.9854C126.342 59.0646 122.396 55.7054 121.554 50.5204C121.417 49.6719 121.351 48.8039 121.41 48.0006L110.229 38.4828C109.688 38.8754 109.052 39.1463 108.401 39.3229C107.749 39.4995 107.082 39.5819 106.465 39.5032L93.4861 65.4615C93.7895 66.1666 93.992 66.9483 94.1297 67.7967C94.9715 72.9817 92.4027 78.107 88.4214 79.1863C84.4401 80.2655 80.4939 76.9063 79.6522 71.7213C78.8104 66.5363 81.3792 61.411 85.3605 60.3318C86.012 60.1552 86.6426 60.0826 87.26 60.1613L100.283 34.2403C99.9792 33.5352 99.7691 32.7064 99.6314 31.8579C98.7896 26.6729 101.358 21.5477 105.34 20.4684C109.321 19.3892 113.267 22.7484 114.109 27.9334C114.247 28.7818 114.312 29.6499 114.253 30.4532L125.434 39.971C125.975 39.5783 126.611 39.3075 127.263 39.1309C127.914 38.9543 128.581 38.8719 129.198 38.9506L139.323 18.6871C139.02 17.9819 138.817 17.2003 138.679 16.3518C137.838 11.1668 140.406 6.04152 144.388 4.96227C148.369 3.88302 152.315 7.24226 153.157 12.4273Z"
     fill="#336CFB"
     id="path2" />
  <path
     d="M144.064 62L156.304 42.992L145.576 26.144H158.392L162.712 33.056C162.952 33.44 163.192 33.944 163.432 34.568C163.72 35.144 163.984 35.72 164.224 36.296C164.608 35.768 164.992 35.12 165.376 34.352C165.76 33.584 166.072 32.96 166.312 32.48C166.984 31.136 167.512 29.912 167.896 28.808C168.28 27.704 168.52 26.816 168.616 26.144H180.424C180.28 27.056 179.92 28.256 179.344 29.744C178.768 31.232 177.928 32.984 176.824 35C176.008 36.488 175.048 37.904 173.944 39.248C172.84 40.592 171.736 41.84 170.632 42.992L182.296 62H169.624L164.872 53.72C164.632 53.336 164.368 52.856 164.08 52.28C163.792 51.704 163.504 51.104 163.216 50.48L161.56 53.72L156.592 62H144.064Z"
     fill="#336CFB"
     id="path4" />
  <path
     d="M15.264 25.28C16.656 25.28 18.024 25.424 19.368 25.712C20.712 26 21.912 26.336 22.968 26.72C24.216 27.152 25.368 27.608 26.424 28.088L23.976 33.704C23.016 33.272 22.056 32.888 21.096 32.552C20.28 32.264 19.368 32 18.36 31.76C17.4 31.472 16.44 31.328 15.48 31.328C14.376 31.328 13.416 31.592 12.6 32.12C11.832 32.648 11.448 33.44 11.448 34.496C11.448 37.232 13.44 39.368 17.424 40.904C18.912 41.48 20.256 42.104 21.456 42.776C22.656 43.4 23.664 44.144 24.48 45.008C25.344 45.872 25.992 46.88 26.424 48.032C26.856 49.136 27.072 50.456 27.072 51.992C27.072 53.336 26.784 54.656 26.208 55.952C25.68 57.248 24.864 58.4 23.76 59.408C22.704 60.416 21.384 61.232 19.8 61.856C18.264 62.432 16.512 62.72 14.544 62.72C12.96 62.72 11.4 62.528 9.864 62.144C8.328 61.808 6.936 61.424 5.688 60.992C4.488 60.56 3.528 60.152 2.808 59.768L1.728 59.264L4.392 53.216L5.328 53.72C5.952 54.104 6.744 54.512 7.704 54.944C8.664 55.376 9.696 55.784 10.8 56.168C11.904 56.504 12.912 56.672 13.824 56.672C15.504 56.672 16.752 56.336 17.568 55.664C18.384 54.992 18.792 54.104 18.792 53C18.792 51.752 18.336 50.624 17.424 49.616C16.56 48.56 15.24 47.696 13.464 47.024C9.768 45.632 7.104 44.048 5.472 42.272C3.888 40.496 3.096 38.192 3.096 35.36C3.096 34.016 3.408 32.744 4.032 31.544C4.656 30.296 5.496 29.216 6.552 28.304C7.656 27.344 8.952 26.6 10.44 26.072C11.928 25.544 13.536 25.28 15.264 25.28ZM30.4919 26.144H36.9719L38.4119 17.72L45.1799 16.208V26.144H54.0359L53.0279 31.976H45.1799V53.288C45.1799 54.536 45.5159 55.352 46.1879 55.736C46.8599 56.072 47.6039 56.24 48.4199 56.24C49.0919 56.24 49.7639 56.192 50.4359 56.096C51.1079 56 51.7079 55.88 52.2359 55.736C52.8599 55.592 53.4599 55.424 54.0359 55.232L55.4039 60.632L54.7559 60.848C54.3239 61.04 53.6759 61.256 52.8119 61.496C51.9959 61.688 51.0119 61.856 49.8599 62C48.7559 62.192 47.5319 62.288 46.1879 62.288C44.8439 62.288 43.5959 62.144 42.4439 61.856C41.3399 61.568 40.3799 61.112 39.5639 60.488C38.7479 59.816 38.0999 58.976 37.6199 57.968C37.1879 56.96 36.9719 55.712 36.9719 54.224V31.976H30.4919V26.144ZM73.7688 25.28C79.2888 25.28 83.2968 26.912 85.7928 30.176C88.2888 33.44 89.5368 37.928 89.5368 43.64C89.5368 46.328 89.2008 48.848 88.5288 51.2C87.8568 53.504 86.8248 55.52 85.4328 57.248C84.0888 58.928 82.3848 60.272 80.3208 61.28C78.2568 62.24 75.8568 62.72 73.1208 62.72C70.3848 62.72 68.0088 62.312 65.9928 61.496C64.0248 60.632 62.3928 59.408 61.0968 57.824C59.8008 56.24 58.8408 54.32 58.2168 52.064C57.6408 49.808 57.3528 47.264 57.3528 44.432C57.3528 41.696 57.6888 39.176 58.3608 36.872C59.0328 34.52 60.0408 32.504 61.3848 30.824C62.7768 29.096 64.5048 27.752 66.5688 26.792C68.6328 25.784 71.0328 25.28 73.7688 25.28ZM73.0488 31.328C71.6568 31.328 70.5048 31.64 69.5928 32.264C68.7288 32.888 68.0328 33.776 67.5048 34.928C67.0248 36.032 66.6888 37.352 66.4968 38.888C66.3048 40.376 66.2088 41.984 66.2088 43.712C66.2088 45.488 66.3048 47.168 66.4968 48.752C66.7368 50.336 67.1448 51.728 67.7208 52.928C68.2968 54.08 69.0648 54.992 70.0248 55.664C71.0328 56.336 72.3048 56.672 73.8408 56.672C75.2328 56.672 76.3608 56.36 77.2248 55.736C78.1368 55.112 78.8328 54.248 79.3128 53.144C79.8408 51.992 80.2008 50.672 80.3928 49.184C80.5848 47.696 80.6808 46.088 80.6808 44.36C80.6808 42.584 80.5608 40.904 80.3208 39.32C80.1288 37.736 79.7448 36.344 79.1688 35.144C78.5928 33.944 77.8008 33.008 76.7928 32.336C75.8328 31.664 74.5848 31.328 73.0488 31.328Z"
     fill="black"
     id="path6" />
  <path
     style="fill:#ffffff;stroke-width:0.125408"
     d="M 13.355976,62.620682 C 11.231679,62.491189 7.3081825,61.573838 5.0163292,60.670792 3.5956895,60.111026 1.8811234,59.29486 1.8811234,59.178373 c 0,-0.05684 0.5681418,-1.394158 1.2625371,-2.971824 l 1.2625372,-2.868484 2.1548371,1.080578 c 1.1974089,0.600459 2.8792084,1.323824 3.7851442,1.628042 1.42962,0.480073 1.803377,0.555153 3.036267,0.609927 2.263589,0.100563 3.648755,-0.30009 4.572512,-1.322578 0.676804,-0.74914 0.89996,-1.461394 0.831016,-2.652364 -0.0754,-1.302504 -0.563022,-2.322158 -1.640452,-3.430314 -0.942696,-0.96958 -2.059074,-1.64545 -3.977658,-2.408128 C 9.7329744,45.477788 7.5251438,44.167231 5.8816026,42.518143 5.0257701,41.659421 4.6954344,41.21701 4.2819148,40.375714 2.9155892,37.595958 2.7932984,34.39482 3.9571951,31.875718 5.9463376,27.57048 10.647578,25.077485 16.212862,25.376728 c 2.61381,0.140544 5.990851,0.991804 9.022516,2.274331 l 1.094294,0.462935 -0.166213,0.396301 c -0.709598,1.691889 -2.129872,4.927604 -2.194017,4.998481 -0.04355,0.04812 -0.7723,-0.190537 -1.619454,-0.530339 -1.806634,-0.724659 -4.442717,-1.464108 -5.8473,-1.640227 -1.818179,-0.227981 -3.617386,0.260717 -4.449643,1.208606 -0.822283,0.936528 -0.861993,2.69601 -0.09583,4.246226 0.837572,1.694711 2.517018,2.964788 5.586688,4.22492 5.623209,2.308384 7.966258,4.303639 9.045872,7.703135 0.426916,1.344275 0.495535,4.032367 0.139437,5.462334 -1.162208,4.667026 -5.128018,7.819732 -10.555453,8.391286 -1.151239,0.121236 -1.491842,0.126792 -2.817779,0.04597 z"
     id="path70" />
  <path
     style="fill:#ffffff;stroke-width:0.125408"
     d="m 44.080993,62.121715 c -1.162193,-0.182062 -2.550456,-0.595971 -3.351757,-0.999323 -1.640342,-0.8257 -2.9407,-2.4594 -3.441834,-4.324136 -0.195664,-0.728068 -0.219997,-1.930503 -0.259256,-12.811319 l -0.04333,-12.007838 h -3.192607 -3.192606 v -2.88439 -2.884389 h 3.189459 c 2.929593,0 3.194674,-0.01788 3.253461,-0.219464 0.0352,-0.120706 0.357406,-1.96891 0.716009,-4.10712 0.358604,-2.13821 0.714533,-3.951967 0.790954,-4.030572 0.105679,-0.108697 6.174653,-1.550094 6.526642,-1.550094 0.03896,0 0.07083,2.229131 0.07083,4.953625 v 4.953625 h 4.389288 c 4.099481,0 4.3888,0.01449 4.381905,0.219464 -0.0041,0.120706 -0.217729,1.404573 -0.474817,2.853038 l -0.467434,2.633573 -3.916439,0.03314 -3.916439,0.03314 0.03332,11.253599 c 0.03247,10.96777 0.03969,11.26634 0.284136,11.755232 0.309002,0.618005 1.24185,1.132281 2.29436,1.264873 0.998341,0.125769 3.21785,-0.131689 4.853909,-0.563044 0.75872,-0.20004 1.38353,-0.355136 1.388468,-0.344657 0.169443,0.35962 1.290093,5.165598 1.220534,5.234339 -0.253162,0.250189 -2.590426,0.904664 -4.269632,1.195571 -1.418729,0.245783 -2.392419,0.33014 -4.170852,0.361349 -1.276029,0.02239 -2.489354,0.01419 -2.696277,-0.01823 z"
     id="path109" />
  <path
     style="fill:#ffffff;stroke-width:0.125408"
     d="M 70.986076,62.572321 C 67.094927,62.200874 64.483435,61.074099 62.135907,58.753756 60.445783,57.083204 59.474483,55.538231 58.639311,53.191989 57.360066,49.598213 57.05727,43.26993 57.951345,38.813847 59.39887,31.599365 63.81741,26.912449 70.363287,25.64802 c 3.412257,-0.659125 8.165351,-0.178353 10.948206,1.107405 4.412333,2.038624 7.070842,6.335003 7.911672,12.785943 0.251672,1.930848 0.254671,6.002689 0.0058,7.887872 -0.838709,6.353469 -3.593949,10.806662 -8.347926,13.492445 -0.911797,0.515125 -3.041341,1.221745 -4.382031,1.454035 -1.40787,0.243929 -4.035514,0.337635 -5.512945,0.196601 z m 5.305414,-6.258624 c 0.941084,-0.36354 2.278386,-1.602086 2.812738,-2.605024 1.493212,-2.80265 2.024067,-8.302675 1.337132,-13.853614 -0.257233,-2.078634 -0.58926,-3.328686 -1.244815,-4.686625 -1.133567,-2.348108 -2.667733,-3.494087 -5.113361,-3.819539 -3.692431,-0.491371 -6.231407,1.387917 -7.232702,5.353467 -0.785422,3.110605 -0.884739,10.131553 -0.186867,13.210114 0.855887,3.775626 2.539362,5.920946 5.16679,6.584251 1.108545,0.279858 3.518814,0.180968 4.461085,-0.18303 z"
     id="path148" />
</svg>
